<?xml version="1.0" encoding="utf-8"?>
<!-- Generator: Adobe Illustrator 28.0.0, SVG Export Plug-In . SVG Version: 6.00 Build 0)  -->
<svg version="1.1" id="Ebene_1" xmlns="http://www.w3.org/2000/svg" xmlns:xlink="http://www.w3.org/1999/xlink" x="0px" y="0px"
	 viewBox="0 0 598.5 157" style="enable-background:new 0 0 598.5 157;" xml:space="preserve">
<style type="text/css">
	.st0{fill:#D4C186;}
</style>
<g>
	<g>
		<path class="st0" d="M351.7,129.4c-6,4.9-12.6,6.2-20.1,3.4c-9.7-3.7-17.7-10.1-24.7-17.4c-16.2-17-31.9-34.3-47.5-51.9
			c-4.1-4.7-7.4-10.3-10.2-15.9c-5.1-10.4-0.4-21.2,10.5-25c8.3-2.9,16.7-2.8,24.8,0.9c12.1,5.5,16.2,18.1,8.7,29
			c-3.6,5.2-9.1,9-13.8,13.4c-1.2,1.1-2.7,1.8-4.9,3.3c11.1,12,21.9,23.6,33.6,36.2c3.6-6,7.1-10.8,9.5-16.1
			c2.9-6.5,0.6-10.8-6.1-13.2c-1.6-0.6-3.3-1-5.9-1.8c14.7,0,28.3,0,41.8,0c-16.5,7.4-22.9,23.5-34.4,36.1
			C325,119.6,334,132.6,351.7,129.4z M283.1,42.2c0-4.7-1.7-9.2-6.6-11.9c-5.4-3-10.9-2.6-16.1,0.5c-4.3,2.6-6.4,7.5-4.1,12
			c3.1,6.1,7.2,11.8,11.2,17.4c0.6,0.8,3.1,1.1,4.1,0.5C278.7,56.9,283,51.2,283.1,42.2z"/>
		<path class="st0" d="M299.7,152.8c97.8,0,195.6,0,293.4,0c1,0,2.1-0.2,3,0.1c0.9,0.3,1.6,1.1,2.4,1.7c-0.8,0.8-1.5,1.9-2.5,2.2
			c-1.4,0.4-3,0.2-4.5,0.2c-96.3,0-192.6-0.1-288.9-0.1c-99.3,0-198.6,0.1-297.9,0.1c-1.4,0-2.9-0.3-4.3-0.7c-0.3-0.1-0.4-2-0.1-2.2
			c1-0.6,2.3-1.1,3.5-1.1c15.8-0.1,31.7-0.1,47.5-0.1C134.1,152.8,216.9,152.8,299.7,152.8z"/>
		<path class="st0" d="M0.8,143.4c0-24.2,0-47.5,0-70.9c0.7-0.2,1.3-0.6,1.9-0.6C24,72.1,45.3,72,66.6,72.7
			c13.6,0.4,20.7,8.7,20.9,22.3c0.1,8.5,0.2,17,0,25.5c-0.2,13.7-6.8,21.4-20.4,22.2c-14.1,0.8-28.3,0.6-42.4,0.8
			C16.9,143.5,9.1,143.4,0.8,143.4z M9.5,135.7c18.7,0,36.6,0.3,54.6-0.1c9.9-0.2,14.4-5.5,14.5-15.4c0.1-8.2,0.2-16.3,0-24.5
			c-0.2-11.7-4.3-16-16.1-16.1c-16.7-0.3-33.3-0.1-50-0.2c-1,0-1.9,0.2-3.1,0.4C9.5,98.4,9.5,116.8,9.5,135.7z"/>
		<path class="st0" d="M246.4,74.4c-6.3-10.3-13.9-20-8.6-32.3c3.8,7,6.8,14.9,11.8,21.5c17.2,22.9,36.2,44.4,57.6,63.6
			c6.5,5.9,14.8,9.9,21.6,14.3c-3.1,1.2-10.8,0.9-16.6-2.1c-5.4-2.8-10.4-6.4-16-9.9c-10.4,9.5-22.6,14.5-37.2,11.8
			c-8.9-1.7-15.5-7-21.1-14C227.5,114.5,223.5,91.3,246.4,74.4z M251.6,81.3c-9.8,7.2-14.2,16.5-11.8,27.9
			c2.4,11.4,9.5,19.8,21.1,23c11.3,3.2,20.8-0.7,29-8.8C277,109.3,264.5,95.5,251.6,81.3z"/>
		<path class="st0" d="M492.9,119.6c7.1-1.3,7.6-0.9,7.3,5.7c-0.5,11.9-5.7,17.9-17.8,18.3c-16,0.5-31.9,0.5-47.9-0.2
			c-11.4-0.5-17.5-7.2-17.8-18.8c-0.4-11.6-0.5-23.3,0.1-34.9c0.6-11.4,6.7-17.5,18.1-17.9c15.6-0.5,31.3-0.6,46.9,0
			c13.7,0.5,19.2,8.2,17.1,22.4c-2.2,0-4.4,0-6.9,0c-0.2-1.3-0.3-2.4-0.4-3.5c-1-7.8-4.8-11.9-12.7-12.1c-13-0.3-26-0.4-39,0
			c-10.2,0.3-14.4,4.9-14.5,15.1c-0.1,9.3-0.2,18.7,0,28c0.1,9.2,3.6,13.7,12.6,14.1c13.8,0.7,27.6,0.8,41.4,0.2
			c9.1-0.3,11.8-3.6,12.9-12.7C492.6,122.1,492.8,120.8,492.9,119.6z"/>
		<path class="st0" d="M515.9,143.1c0-23.7,0-47.1,0-70.9c2.6,0,5,0,8.2,0c0,9.9,0,20,0,30.3c22.1,0,43.5,0,65.5,0
			c0-10.2,0-20.1,0-30.4c3,0,5.4,0,8.2,0c0,23.6,0,47.2,0,71c-2.6,0-5,0-8.1,0c0-8.8,0-17.6,0-26.3c0-6.5,0-6.6-6.4-6.6
			c-18,0-36,0.1-54,0c-3.9,0-5.2,1.1-5.1,5.1c0.3,9.1,0.1,18.3,0.1,27.8C521.3,143.1,518.9,143.1,515.9,143.1z"/>
		<path class="st0" d="M184.9,72.2c0,7,0,13.8,0,20.6c-0.1,10.7,0,21.3-0.4,32c-0.4,11-6.6,18.2-17.5,18.7
			c-15.9,0.6-31.9,0.5-47.9,0c-9.5-0.3-15.8-7-16.3-17.1c-0.7-15.6-0.6-31.3-0.8-46.9c0-2.4,0-4.9,0-7.5c3,0,5.3,0,8.6,0
			c0,4.5-0.1,8.9,0,13.3c0.2,13,0.1,26,0.7,38.9c0.3,7.5,3.6,11.3,11.1,11.7c13.8,0.7,27.6,0.8,41.4,0.1c8.7-0.5,11.8-4.6,12-13.5
			c0.3-14.8,0.2-29.6,0.2-44.5c0-1.8,0-3.6,0-5.8C179.1,72.2,181.5,72.2,184.9,72.2z"/>
		<path class="st0" d="M440.8,1.4c-2.8,8-9.2,12.4-15.4,17.4c2.6-0.9,5.3-1.8,7.9-2.7c-6,7.8-14.5,10.8-23.5,13.6
			c2.5-0.2,4.9-0.3,7.4-0.6c2.4-0.3,4.8-0.8,7.2-1.1c0.2,0.5,0.3,1.1,0.5,1.6c-7.4,2.3-14.9,4.7-22.8,7.1c3.6,0,6.8,0,10,0
			c-7.4,6.2-16.2,4.5-24.7,6.3c3.1,0.4,6.3,0.9,10,1.4c-4.5,3.2-9.3,3.4-14.1,2.9c-2.8-0.3-5.6-1-8.3-1.5c-5.5-1-7.5,0.6-7.2,6.2
			c0.2,3,1.4,6,2.1,8.9c-5.1-2-11-9.1-11.8-14.4c-1.1-7.4,2.3-13.1,8.1-16.4c6.8-3.9,14.4-6.7,21.9-9.1C399.8,17,412.1,14,424,10
			C429.7,8,434.9,4.5,440.8,1.4z"/>
		<path class="st0" d="M193.2,44.2c3.1-0.5,6.3-1,9.4-1.4c-0.1-0.2-0.1-0.3-0.2-0.5c-7-1-14-1.9-21-2.9c-1.2-0.2-2.3-1.1-4.8-2.3
			c4.1-0.2,6.8-0.4,10.9-0.6c-8.3-2.6-15.2-4.9-22.2-7.1c0.1-0.5,0.3-1,0.4-1.4c5.6,0.6,11.2,1.3,16.9,1.9
			c-9.5-3.4-19.7-4.7-27.7-14.1c4.3,1.3,7.4,2.2,10.5,3.1c-6.8-5.1-14.3-9.1-16.8-18.9c16,13,35.2,15.5,53.5,20.8
			c6.2,1.8,12.4,3.7,18.3,6.4c6.9,3.2,11.5,9,11.6,16.8c0.1,8-5.3,13.1-12.4,17.7c1.1-3.3,2.2-5.7,2.7-8.2c1.2-5.7-1.4-8.5-7.1-8.1
			c-5.6,0.4-11.2,0.9-16.8,1.1c-1.8,0-3.6-1-5.5-1.5C193,44.7,193.1,44.5,193.2,44.2z"/>
		<path class="st0" d="M326.2,73.5c-0.3-6.1-4.2-6.5-8.5-6.3c-5.3,0.2-10.4-0.2-13.9-4.9c-0.6-0.9-1-2-1.7-3.5c5.5,0,10.4,0,15.3,0
			c1.3,0,2.7,0.1,4-0.1c1.5-0.3,2.9-1,4.4-1.5c-0.9-1.2-1.9-2.3-2.8-3.5c-0.8-1.1-2-2.3-2.1-3.5c-0.5-5.6-2-10.7-8.3-14.6
			c2.3-0.7,3.6-1.4,4.8-1.4c7.8-0.1,15.7-0.2,23.5-0.1c1.1,0,2.3,0.9,3.4,1.3c-0.8,0.8-1.9,1.5-2.4,2.5c-1.8,3.6-3.4,7.3-5.2,10.9
			c-0.9,1.9-2.1,3.7-3.2,5.5c-0.5,0.9-1.2,1.7-1.8,2.6c0.9,0.6,1.8,1.6,2.7,1.6c4.6,0.3,9.3,0.3,14,0.3c2.1,0,4.3,0,6.8,0
			c-1.3,4.6-4,7.2-8.3,7.9c-3.1,0.5-6.4,0.1-9.4,0.8c-2,0.4-3.8,2-5.5,3.2c-1.5,1-2.8,2.3-4.2,3.4C327.2,73.8,326.7,73.7,326.2,73.5
			z"/>
		<path class="st0" d="M487.5,62.4c-35.1,0-70.3,0-105.4-0.1c-1.8,0-3.6-1.2-5.4-1.8c1.9-0.7,3.7-2,5.6-2.1
			c10.8-0.2,21.6-0.2,32.5-0.2c59,0,117.9,0,176.9,0.1c2.3,0,6.6,1.6,6.6,1.9c-0.7,4.1-4.1,2-6.3,2
			C557.2,62.5,522.4,62.4,487.5,62.4z"/>
		<path class="st0" d="M106.2,62.4c-33,0-65.9,0-98.9,0c-1.2,0-2.4,0.3-3.5-0.1C2.5,62,1.3,61.1,0,60.5c1.2-0.7,2.4-2,3.7-2
			c7.5-0.2,15-0.1,22.5-0.1c60.1,0,120.2,0,180.3,0.1c2.2,0,4.4,1.4,6.6,2.1c-2.2,0.6-4.3,1.7-6.5,1.7
			C173.1,62.5,139.7,62.4,106.2,62.4z"/>
		<path class="st0" d="M399.2,143.2c-3,0-5.4,0-8.1,0c0-23.8,0-47.3,0-71.1c2.8,0,5.3,0,8.1,0C399.2,95.9,399.2,119.4,399.2,143.2z"
			/>
	</g>
</g>
</svg>
