<?xml version="1.0" encoding="utf-8"?>
<!-- Generator: Adobe Illustrator 27.2.0, SVG Export Plug-In . SVG Version: 6.00 Build 0)  -->
<svg version="1.1" id="Ebene_1" xmlns="http://www.w3.org/2000/svg" xmlns:xlink="http://www.w3.org/1999/xlink" x="0px" y="0px"
	 viewBox="0 0 1100 429.7" style="enable-background:new 0 0 1100 429.7;" xml:space="preserve">
<style type="text/css">
	.st0{fill:#1D1D1B;}
</style>
<g>
	<g>
		<g>
			<polygon class="st0" points="764.2,44.3 764.2,54.6 1089.7,54.6 1089.7,419.4 10.3,419.4 10.3,54.6 335.8,54.6 335.8,44.3 
				0,44.3 0,49.5 0,54.6 0,419.4 0,429.7 10.3,429.7 1089.7,429.7 1098.8,429.7 1100,429.7 1100,54.6 1100,49.5 1100,44.3 			"/>
		</g>
		<g>
			<path class="st0" d="M398.1,74.4c-4.9-2.7-8.8-6.4-11.7-11.1c-2.8-4.7-4.2-10.1-4.2-16c0-5.9,1.4-11.3,4.2-16
				c2.8-4.7,6.7-8.4,11.7-11.1c4.9-2.7,10.5-4,16.7-4c5.2,0,9.9,0.9,14.1,2.7c4.2,1.8,7.7,4.5,10.6,7.9l-8.9,8.2
				c-4.1-4.7-9.1-7-15.1-7c-3.7,0-7,0.8-10,2.4c-2.9,1.6-5.2,3.9-6.8,6.8c-1.6,2.9-2.4,6.2-2.4,10c0,3.7,0.8,7,2.4,10
				c1.6,2.9,3.9,5.2,6.8,6.8c2.9,1.6,6.2,2.4,10,2.4c6,0,11-2.4,15.1-7.1l8.9,8.2c-2.9,3.5-6.4,6.2-10.6,8c-4.2,1.8-9,2.7-14.2,2.7
				C408.6,78.4,403.1,77,398.1,74.4z"/>
			<path class="st0" d="M521.6,64.5h-27.9l-5.3,12.9h-14.2l26.8-60.1h13.7l26.9,60.1h-14.6L521.6,64.5z M517.2,53.9l-9.5-23l-9.5,23
				H517.2z"/>
			<path class="st0" d="M596,28.4v15.9h27.8v11.2H596v21.9h-13.9V17.2h45.4v11.2H596z"/>
			<path class="st0" d="M717.8,66.2v11.2h-46.5V17.2h45.4v11.2h-31.6v13H713v10.8h-27.9v13.9H717.8z M697.8,0h14.4l-15.5,12.4h-10.5
				L697.8,0z"/>
		</g>
	</g>
	<g>
		<path class="st0" d="M184.2,289.9L184,230l-29.7,49.9h-5.4l-29.7-49.5v59.5H108v-82.2h9.6l34.3,57.8l33.8-57.8h9.6l0.1,82.2H184.2
			z"/>
		<path class="st0" d="M228.5,281.4c-6.1-6.3-9.2-15.3-9.2-27v-46.7h11.7v46.3c0,17.6,7.7,26.4,23.1,26.4c7.5,0,13.3-2.2,17.3-6.5
			c4-4.3,6-11,6-19.9v-46.3h11.4v46.7c0,11.8-3.1,20.8-9.2,27.1c-6.1,6.2-14.6,9.3-25.6,9.3C243.2,290.8,234.6,287.7,228.5,281.4z"
			/>
		<path class="st0" d="M319,287.9c-5.8-1.9-10.3-4.4-13.6-7.5l4.3-9.2c3.1,2.8,7.1,5.1,12,6.9c4.9,1.8,9.9,2.6,15.1,2.6
			c6.8,0,11.9-1.2,15.3-3.5c3.4-2.3,5-5.4,5-9.2c0-2.8-0.9-5.1-2.8-6.9c-1.8-1.8-4.1-3.1-6.8-4c-2.7-0.9-6.5-2-11.4-3.2
			c-6.2-1.5-11.2-3-15-4.5c-3.8-1.5-7-3.8-9.7-6.9c-2.7-3.1-4.1-7.3-4.1-12.5c0-4.4,1.2-8.3,3.5-11.9c2.3-3.5,5.8-6.3,10.5-8.5
			c4.7-2.1,10.5-3.2,17.5-3.2c4.9,0,9.6,0.6,14.3,1.9c4.7,1.3,8.7,3,12.1,5.4l-3.9,9.4c-3.4-2.2-7.1-3.9-11-5
			c-3.9-1.1-7.7-1.7-11.5-1.7c-6.7,0-11.6,1.2-15,3.6c-3.3,2.4-5,5.6-5,9.4c0,2.8,0.9,5.1,2.8,6.9c1.9,1.8,4.2,3.1,7,4.1
			c2.8,1,6.6,2,11.3,3.1c6.2,1.5,11.2,3,14.9,4.5c3.8,1.5,7,3.8,9.7,6.8c2.7,3,4,7.2,4,12.3c0,4.3-1.2,8.2-3.5,11.8
			c-2.3,3.6-5.9,6.4-10.7,8.5c-4.8,2.1-10.6,3.1-17.6,3.1C330.7,290.8,324.8,289.8,319,287.9z"/>
		<path class="st0" d="M401,217.9h-28.2v-10.2h68v10.2h-28.2v72H401V217.9z"/>
		<path class="st0" d="M513.2,279.6v10.2h-59.6v-82.2h58v10.2h-46.3v25.2h41.2v10h-41.2v26.5H513.2z"/>
		<path class="st0" d="M587.2,289.9l-17.7-25.2c-2.2,0.2-3.9,0.2-5.2,0.2H544v25h-11.7v-82.2h32.1c10.6,0,19,2.5,25.1,7.6
			c6.1,5.1,9.2,12.1,9.2,21c0,6.3-1.6,11.7-4.7,16.2s-7.6,7.7-13.4,9.7l19.5,27.6H587.2z M581,250.1c3.9-3.2,5.9-7.8,5.9-13.7
			c0-5.9-2-10.5-5.9-13.7c-3.9-3.2-9.6-4.8-17-4.8h-20v37h20C571.4,254.9,577.1,253.3,581,250.1z"/>
		<path class="st0" d="M623.7,287.9c-5.8-1.9-10.3-4.4-13.6-7.5l4.3-9.2c3.1,2.8,7.1,5.1,12,6.9c4.9,1.8,9.9,2.6,15.1,2.6
			c6.8,0,11.9-1.2,15.3-3.5c3.4-2.3,5-5.4,5-9.2c0-2.8-0.9-5.1-2.8-6.9c-1.8-1.8-4.1-3.1-6.8-4s-6.5-2-11.4-3.2
			c-6.2-1.5-11.2-3-15-4.5c-3.8-1.5-7-3.8-9.7-6.9c-2.7-3.1-4.1-7.3-4.1-12.5c0-4.4,1.2-8.3,3.5-11.9c2.3-3.5,5.8-6.3,10.5-8.5
			c4.7-2.1,10.5-3.2,17.5-3.2c4.9,0,9.6,0.6,14.3,1.9c4.7,1.3,8.7,3,12.1,5.4l-3.9,9.4c-3.4-2.2-7.1-3.9-11-5
			c-3.9-1.1-7.7-1.7-11.5-1.7c-6.7,0-11.6,1.2-15,3.6c-3.3,2.4-5,5.6-5,9.4c0,2.8,0.9,5.1,2.8,6.9c1.9,1.8,4.2,3.1,7,4.1
			c2.8,1,6.6,2,11.3,3.1c6.2,1.5,11.2,3,14.9,4.5c3.8,1.5,7,3.8,9.7,6.8c2.7,3,4,7.2,4,12.3c0,4.3-1.2,8.2-3.5,11.8
			c-2.3,3.6-5.9,6.4-10.7,8.5c-4.8,2.1-10.6,3.1-17.6,3.1C635.4,290.8,629.4,289.8,623.7,287.9z"/>
		<path class="st0" d="M705.7,217.9h-28.2v-10.2h68v10.2h-28.2v72h-11.6V217.9z"/>
		<path class="st0" d="M806.5,269.3h-43.7l-9,20.5h-12.1l37.2-82.2h11.6l37.3,82.2h-12.3L806.5,269.3z M802.4,259.9l-17.7-40.3
			L767,259.9H802.4z"/>
		<path class="st0" d="M840.1,207.7h34.6c8.7,0,16.4,1.7,23.1,5.2c6.7,3.4,12,8.3,15.7,14.5c3.7,6.2,5.6,13.4,5.6,21.4
			c0,8.1-1.9,15.2-5.6,21.4c-3.7,6.2-8.9,11.1-15.7,14.5c-6.7,3.4-14.4,5.2-23.1,5.2h-34.6V207.7z M874,279.6
			c6.7,0,12.5-1.3,17.6-3.9c5-2.6,8.9-6.2,11.7-10.9c2.7-4.7,4.1-10,4.1-16.1c0-6.1-1.4-11.5-4.1-16.1c-2.7-4.7-6.6-8.3-11.7-10.9
			c-5-2.6-10.9-3.9-17.6-3.9h-22.2v61.8H874z"/>
		<path class="st0" d="M952.2,217.9h-28.2v-10.2h68v10.2h-28.2v72h-11.6V217.9z"/>
	</g>
</g>
</svg>
