<?xml version="1.0" encoding="utf-8"?>
<!-- Generator: Adobe Illustrator 27.4.0, SVG Export Plug-In . SVG Version: 6.00 Build 0)  -->
<svg version="1.1" id="Ebene_1" xmlns="http://www.w3.org/2000/svg" xmlns:xlink="http://www.w3.org/1999/xlink" x="0px" y="0px"
	 viewBox="0 0 732.9 273.8" style="enable-background:new 0 0 732.9 273.8;" xml:space="preserve">
<style type="text/css">
	.st0{fill:#FFAF0A;}
</style>
<g>
	<path class="st0" d="M278.6,110.1c0,6.1,0.7,12.3-0.3,18.4c-1.9,11.9-8.4,20.2-19.9,24.3c-0.4,0.2-0.9,0.3-1.3,0.4
		c-1,0.2-1.2,0.8-0.7,1.7c1.7,3.8,3.4,7.5,5,11.3c2.3,5.5,4.7,10.8,7,16.2c1.4,3.4,3,6.7,4.6,10c1.2,2.5,2.3,5,3.3,7.6
		c1,2.4,2.4,4.5,3.7,6.7c2.9,4.5,7.2,6.8,12.2,8.2c0.4,0.1,1,0,1.4,0c1.9,0.1,1.9,0.1,1.9,1.9c0,1.9,0,1.9-1.8,1.9
		c-5.9,0-11.8,0-17.7,0c-2.2,0-4.3-0.5-6.4-1.4c-4.8-2.1-8.3-5.5-10.4-10.3c-2.7-6.1-5.4-12.3-8.1-18.4c-1.9-4.3-3.8-8.6-5.7-12.9
		c-1.7-3.9-3.6-7.7-5.2-11.7c-1.1-2.8-2.4-5.4-3.5-8.1c-0.5-1.2-1.1-1.5-2.3-1.5c-3.4,0.1-2.9-0.2-2.9,2.8c0,18.3,0,36.6-0.1,54.9
		c0,3.3-0.4,2.9,3,2.9c2.5,0,5,0,7.4,0c1.5,0,1.5,0.1,1.5,2c0,1,0,1.9-1.5,1.8c-3.2-0.1-6.4,0-9.6,0c-9.4,0-18.9,0-28.3,0
		c-0.6,0-1.1,0-1.7,0c-0.8,0-1.2-0.3-1.2-1.1c0-0.5,0-1,0-1.4c-0.1-0.9,0.4-1.2,1.3-1.2c2.6,0,5.3,0,7.9,0c3,0,2.7,0.2,2.7-2.7
		c0-33,0-66,0-99c0-1,0-1.9,0.1-2.9c2.1-0.5,4.2-0.5,6.4-0.5c4,0,8.1,0,12.1,0c0,0.9,0.1,1.8,0.1,2.6c0,11.6,0.1,23.3,0.1,34.9
		c0,0.6,0,1.1,0,1.7c-0.1,1,0.3,1.4,1.4,1.4c5.4,0,10.9,0.1,16.3-0.1c5.9-0.2,10.2-4.4,11.3-10.2c0.2-1.2,0.3-2.4,0.3-3.6
		c0.1-8.9,0.1-17.9,0.2-26.8C266.9,110.1,272.8,110.1,278.6,110.1z"/>
	<path class="st0" d="M76,112.6c-1.1,3.9-3.1,7.3-5.8,10.3c-0.8,0.9-1,1.5-0.1,2.5c5.2,5.9,7.6,12.8,7.6,20.6
		c0,14.2,0.1,28.4,0,42.6c-0.1,14.4-9.8,26.3-23.8,29.5c-1.9,0.4-3.8,0.7-5.7,0.7c-15.7,0-31.3,0-47,0c-0.2,0-0.5,0-0.7-0.1
		c-0.1-0.1-0.3-0.3-0.4-0.4c-0.2-3.3-0.2-3.3,2.9-3.3c2.4,0,4.8,0,7.2,0c1.7,0,1.7-0.1,1.7-1.8c0-0.7,0-1.4,0-2.2
		c0-32,0-64.1,0-96.1c0-1,0.1-2.1,0.1-3.1c6.1,0,12.3,0,18.4,0c0,2.9,0,5.8,0.1,8.6c0,1.7,0.1,1.7,1.8,1.8c4.8,0,9.6,0,14.4,0
		c7,0,11.4-3.6,13-10.4c4.4,0,8.8,0,13.3,0C74,112,75.1,111.9,76,112.6z M30.3,170.6C30.3,170.6,30.3,170.6,30.3,170.6
		c0,4.6,0,9.1,0,13.7c0,9.7,0,19.3,0,29c0,1.8,0,1.9,1.8,1.9c5,0,10.1,0,15.1,0c2.2,0,4.1-0.6,5.9-1.8c4.1-2.9,6.5-6.6,6.5-11.8
		c-0.1-20.2,0-40.4,0-60.6c0-0.7,0-1.4,0-2.2c-0.6-7.1-5.3-13-13.4-12.6c-4.6,0.2-9.3,0-13.9,0c-1.9,0-1.9,0-1.9,1.8
		c0,0.5,0,1,0,1.4C30.3,143.2,30.3,156.9,30.3,170.6z"/>
	<path class="st0" d="M30.5,112c-6.1,0-12.3,0-18.4,0c0-1-0.1-1.9-0.1-2.9c0-24.3,0-48.6,0-72.9c0-3.2,0.3-2.9-3-2.9
		c-2.5,0-5,0-7.4,0c-1.5,0-1.5-0.2-1.5-2c0-1.1,0.1-2,1.5-1.8c0.2,0,0.3,0,0.5,0c15.4,0,30.9-0.1,46.3,0.1
		c14.8,0.2,27.3,11.7,29.1,26.5c0.2,1.4,0.3,2.9,0.3,4.3c0,14.1,0,28.1,0,42.2c0,3.4-0.3,6.9-1.7,10c-0.9-0.7-1.9-0.6-3-0.6
		c-4.4,0-8.8,0-13.3,0c0-1.2,0-2.4,0-3.6c-0.1-12.9-0.1-25.9-0.2-38.8c0-8.1,0-16.1-0.1-24.2c-0.1-6.3-4.7-11.6-10.9-11.9
		c-5.7-0.3-11.3-0.1-17-0.1c-0.9,0-1.3,0.3-1.3,1.3c0,0.4,0,0.8,0,1.2c0.1,18.8,0.1,37.6,0.2,56.3C30.5,98.8,30.5,105.4,30.5,112z"
		/>
	<path class="st0" d="M278.6,110.1c-5.9,0-11.7,0-17.6,0c-0.3-1-0.2-2.1-0.2-3.1c0-20.1,0-40.3,0-60.4c0-2.5-0.3-5-1.5-7.2
		c-2.4-4.3-6.2-6.3-11.1-6.3c-4.6,0-9.1,0-13.7,0c-3.3,0-2.9-0.2-2.9,3c0,23.7,0,47.5,0,71.2c0,1,0.1,1.9-0.1,2.9c-4,0-8.1,0-12.1,0
		c-2.1,0-4.3,0-6.4,0.5c0-1-0.1-1.9-0.1-2.9c0-23.8,0-47.6,0-71.4c0-3.2,0.3-3-3-3c-2.5,0-5,0-7.4,0c-1.5,0-1.5-0.1-1.5-2
		c0-1,0-2,1.5-1.8c0.3,0,0.6,0,1,0c14.9,0,29.9,0,44.8,0c8.7,0,16.1,3.2,22.1,9.4c5.3,5.5,8.2,12.2,8.3,19.9
		c0.2,16.8,0.1,33.5,0.1,50.3C278.8,109.5,278.7,109.8,278.6,110.1z"/>
	<path class="st0" d="M431,216.5c2-0.6,3.9-0.2,5.9-0.3c2.2-0.1,2.2,0,2.2-2.3c0-3.3,0-6.5,0-9.8c0-29.8,0-59.5,0-89.3
		c0-1,0-1.9,0.1-2.9c4.3,0,8.7,0,13,0c0,0.3-0.1,0.6-0.1,1c0,18.7,0.1,37.4,0.1,56c0,0.2,0,0.5,0,0.7c-0.1,1,0.4,1.4,1.4,1.4
		c3.8-0.1,7.5,0.1,11.3-0.1c3.4-0.1,6.1-2.4,7.3-5.7c0.4-1.2,0.4-2.5,0.4-3.8c0-12.7,0-25.4,0.1-38.1c0-3.7,0.1-7.3,0.1-11
		c4.1,0.1,8.2-0.4,12.3,0.5c0,7.3,0.1,14.7,0.1,22c0,6.1,0.3,12.2,0,18.2c-0.4,8.2-4.1,14.5-11.5,18.4c-1,0.5-2,1-3.1,1.2
		c-1,0.3-1.1,0.6-0.9,1.6c0.2,2.1,1.5,3.6,2.3,5.3c1.5,3.2,2.8,6.5,4.3,9.7c2.5,5.2,4.7,10.5,7,15.8c0.8,1.8,1.7,3.4,2.8,5
		c2.2,3.3,5.3,5.3,9.2,5.8c0.6,0.1,1.3-0.1,1.6,0.7c0.4,1.1-0.1,2-1.4,2c-4.2,0-8.5,0.2-12.7-0.1c-5.2-0.4-9-3.1-11.2-7.9
		c-3.1-6.8-6.1-13.7-9.1-20.6c-2.1-4.7-4.2-9.4-6.3-14.1c-1.2-2.7-1.2-2.7-4.6-2.2c0.5,1,0.4,2.1,0.4,3.2c0,11.9,0,23.8,0,35.7
		c0,0.6,0,1.1,0,1.7c-0.1,1.1,0.3,1.6,1.5,1.6c1.6-0.1,3.2,0,4.8,0c2,0,2,0,1.9,2.2c-0.2,0.1-0.3,0.2-0.5,0.4
		c-9.1,0-18.2,0.1-27.3,0.1c-1.4,0-1.4-0.1-1.5-1.9C431.1,216.9,431.2,216.7,431,216.5z"/>
	<path class="st0" d="M352.5,112c0,8.9,0.1,17.7,0.1,26.6c0,1.9-0.3,3.8-1,5.6c-0.8,2.4-1.8,4.8-3.7,6.6c-1.2,1.2-1.2,1.8-0.2,3
		c3.4,4.2,5,9,5,14.3c0,9.7,0,19.3,0,29c-0.1,11-7.2,19.6-18,21.7c-0.5,0.1-1,0-1.4,0c-11,0-22.1,0-33.1,0c-0.8,0-1.9,0.3-1.9-1.1
		c0-0.9,0.2-1.5,1.3-1.5c1.8,0,3.7,0,5.5,0c1.1,0,1.7-0.3,1.6-1.5c-0.1-0.6,0-1.3,0-1.9c0-33,0-66,0-99c0-1,0-1.9,0.1-2.9
		c1.9-0.4,3.9-0.5,5.9-0.5c2.3,0,4.6,0,6.9,0c0,1.2,0.1,2.4,0.1,3.6c0.1,11.7,0.1,23.3,0.1,35c0,2.1,0,2.1,2.1,2.1
		c3.2,0,6.4,0,9.6,0c4.6-0.1,7.9-2.9,8.6-7.4c0.1-0.9,0.1-1.9,0.1-2.9c0-9.7-0.1-19.3-0.1-29C344.2,112,348.3,112,352.5,112z
		 M319.5,185.1C319.5,185.1,319.5,185.1,319.5,185.1c0,2.5,0,5,0,7.4c0,7.3,0,14.5,0,21.8c0,1.9,0,2,2,2c3.2,0,6.4,0,9.6,0
		c1.9,0,3.6-0.6,5.1-1.8c2.4-2,3.7-4.4,3.7-7.7c-0.1-14.2-0.1-28.4-0.1-42.7c0-0.8,0-1.6-0.1-2.4c-0.5-3.9-3.3-7.1-6.7-7.5
		c-4.1-0.5-8.3-0.1-12.5-0.2c-0.7,0-1,0.3-1,1c0,0.6,0,1.1,0,1.7C319.5,166.2,319.5,175.6,319.5,185.1z"/>
	<path class="st0" d="M546.1,112.6c0,0.9,0.1,1.8,0.1,2.6c0,26.9,0,53.9,0.1,80.8c0,2.1-0.1,4.2-0.5,6.2
		c-2.2,9.5-9.8,15.9-19.8,16.6c-3.3,0.2-6.6,0.2-9.8-0.7c-7.3-2.1-12.2-6.8-14.7-13.9c-0.7-1.9-1-3.9-1-6c0-27.8,0-55.6,0.1-83.4
		c0-0.2,0-0.5,0.1-0.7c4.1,0,8.3,0,12.4,0c0,1,0.1,1.9,0.1,2.9c0,29.6,0,59.1,0,88.7c0,1.3,0,2.6,0.2,3.8c0.7,3.7,3.5,6.5,7.3,6.9
		c1.8,0.2,3.7,0.2,5.5,0c3.5-0.4,5.8-2.4,7-5.7c0.5-1.4,0.4-2.8,0.4-4.3c0-30.3,0-60.6,0-90.8c0-1,0-1.9,0.1-2.9
		C537.8,112.5,542,112.5,546.1,112.6z"/>
	<path class="st0" d="M495.2,60c-0.2-0.4-0.2-0.6-0.3-0.7c-5.6-3.1-9.6-7.8-13.3-12.9c-1.6-2.1-3-4.3-4.6-6.4
		c-2.8-3.7-5.9-7.1-9.8-9.7c-6.5-4.5-13.6-5.8-21.2-3.6c-1.1,0.3-2.1,0.7-3.1,1.2c-8.6,4.3-7.4,14.1-2.3,18.6
		c3.2,2.8,7,3.1,10.6,0.9c2.6-1.6,4.7-3.9,6.5-6.3c1.1-1.5,2-3,3.2-4.8c0.6,2.1,0.1,3.7-0.3,5.4c-1.9,7.9-9.6,12.7-17.4,11
		c-5.4-1.2-9.2-5.5-9.9-11c-0.9-7.1,2.4-13.4,9-16.4c7.3-3.3,14.7-3.3,22,0.3c4.6,2.3,8.2,5.8,11.5,9.6c2.3,2.6,4.2,5.5,6,8.4
		c1.9,3.1,4.2,6,6.9,8.6c4,3.9,8.7,6.5,14.1,7.7c3.2,0.7,6.5,0.2,9.8,0.3c1.4,0.1,2.7-0.2,4-0.6c6.1-1.5,11-5,15.2-9.6
		c2.1-2.3,3.8-4.9,5.5-7.5c3.2-5.1,6.9-9.8,11.7-13.6c7.1-5.6,15-7.4,23.7-4.9c6.3,1.8,10.8,5.6,12.3,12.2
		c1.5,6.7-1.6,13.3-7.4,15.8c-6,2.6-13.4,0.5-17.3-4.9c-2.2-3.1-3-6.6-3-10.4c0.9-0.2,0.9,0.6,1.2,1c1.6,2.6,3.3,5.1,5.5,7.2
		c0.7,0.7,1.4,1.3,2.2,1.9c5,3.7,10.5,2.7,13.8-2.5c4-6.1,2.1-13.3-4.5-16.3c-6.6-3-13.3-2.9-20,0.1c-4.1,1.9-7.5,4.8-10.6,8.1
		c-2.4,2.6-4.5,5.4-6.4,8.3c-2.6,3.8-5.5,7.4-8.9,10.6c-1.9,1.8-4.1,3.3-6.2,5c0.8,0,1.7,0,2.5,0c46.3,0,92.6,0,138.9,0
		c0.7,0,1.4,0,2.2,0c1.7-0.1,2.8,0.7,3.6,2.2c3,5.9,7.8,10.3,13.3,13.7c3.8,2.3,8.3,2.2,12.6,1c0.7-0.2,1.5-0.3,2.2-0.6
		c6.3-2.5,9.9-8.2,9.3-14.2c-0.3-3.2-1.9-5.7-4.2-7.8c-0.7-0.7-1.3-0.7-2.1-0.2c-1.4,1-2.6,2.2-3.5,3.6c-0.3,0.5-0.6,1-0.9,1.4
		c-0.3,0.4-0.6,0.5-1,0.3c-0.4-0.2-0.6-0.6-0.5-1c0.1-0.5,0.3-0.9,0.5-1.3c2.8-5.2,8.5-7.6,14.5-6.2c5.9,1.4,9.4,5.8,9.5,11.9
		c0.2,11.3-8.2,20-19.4,19.9c-8,0-15.2-2.4-21.5-7.5c-3.7-3-6.9-6.3-9.4-10.4c-0.6-0.9-1.2-1.6-2.4-1.4c-0.6,0.1-1.3,0-1.9,0
		c-121.2,0-242.4,0-363.6,0c-0.6,0-1.3,0-1.9,0c-0.6,0-1.4,0.3-1.7-0.5c-0.2-0.8-0.3-1.7,0.1-2.6c0.2-0.4,0.7-0.4,1-0.4
		c0.8,0,1.6,0,2.4,0c63.5,0,127,0,190.5,0C493.2,60,494.1,60,495.2,60z"/>
	<path class="st0" d="M84.6,218.5c-0.2-3.3-0.2-3.3,2.9-3.3c2.6,0,5.3,0,7.9,0c1.2,0,1.9-0.2,2.1-1.6c0.9-5.4,1.8-10.8,2.8-16.2
		c0.8-4.8,1.7-9.5,2.4-14.3c0.6-4.3,1.4-8.6,2.1-12.8c0.5-2.9,1.2-5.9,1.6-8.9c0.6-4.3,1.7-8.5,2.2-12.9c0.3-2.7,0.9-5.5,1.5-8.2
		c1.3-6.3,2.3-12.7,3.4-19.1c0-0.2,0.2-0.4,0.3-0.7c1.3,0.2,2.5,0.3,3.8,0.5c-0.5,3.2-1.3,6.4-1.7,9.6c-0.6,4.6-1.6,9.1-2.3,13.6
		c-0.7,5.1-1.7,10.2-2.6,15.3c-0.7,3.9-1.3,7.9-2.1,11.8c-0.3,1.6-0.8,3.2-0.9,4.9c0,1,0.3,1.3,1.2,1.3c0.6,0,1.1,0,1.7,0
		c11.9,0,23.8,0,35.7,0c3,0,5.9,0,8.9,0c1.4,0,1.5-0.1,1.2-1.5c-1.4-8-2.7-15.9-4.1-23.9c-0.5-2.9-1.2-5.8-1.6-8.8
		c-1-6.9-2.3-13.8-3.4-20.8c1.2-0.4,2.5-0.5,3.8-0.5c4.5,0,9.1,0,13.6,0c1.2,6.8,2.5,13.7,3.7,20.5c0.6,3.4,0.9,6.8,1.6,10.1
		c0.6,2.9,1.2,5.9,1.6,8.8c0.6,4.5,1.8,9,2.2,13.6c0.2,2.5,1.1,5.1,1.5,7.6c1.3,7.6,2.7,15.2,3.9,22.9c0.4,2.6,1.1,5.2,1.2,8
		c0,1,0.7,1.7,1.9,1.7c3.3,0,6.6,0,9.8,0c2.3,0,2.4,0,2.3,2.4c0,0.3-0.1,0.6-0.1,0.9c-0.2,0.1-0.3,0.2-0.5,0.4
		c-7,0-14.1,0.1-21.1,0.1c-6.2,0-12.3,0-18.5,0c-0.7,0-1.6,0.4-1.9-0.5c-0.3-0.9-0.3-1.9,0.1-2.8c0.2-0.5,0.8-0.4,1.3-0.4
		c2.2,0,4.5,0,6.7,0c0.8,0,1.6,0.2,2.6-0.3c-0.4-2.5-0.9-5.1-1.3-7.6c-1.2-7-2.5-14.1-3.8-21.1c-0.2-0.9-0.5-1.7-0.6-2.5
		c-0.3-2.2-0.3-2.2-2.6-2.2c-15.3,0-30.5,0-45.8,0c-2.2,0-2.2,0-2.5,2.2c-1.7,9.6-3.4,19.3-5.2,28.9c-0.1,0.8-0.2,1.6-0.3,2.5
		c1.9,0.5,3.8,0.2,5.7,0.2c1.1,0,2.2,0,3.4,0c1.8,0,1.8,0,1.8,1.9c0,0.5-0.1,1-0.1,1.4c-0.2,0.1-0.3,0.3-0.5,0.4
		c-8.8,0-17.6,0-26.4,0C84.8,218.7,84.7,218.6,84.6,218.5z"/>
	<path class="st0" d="M164.8,122c-4.5,0-9.1,0-13.6,0c-1.3,0-2.5,0.1-3.8,0.5c-0.2-0.7-0.4-1.4-0.5-2.1c-4.5-26-9-52.1-13.6-78.1
		c-0.2-1.3-0.3-2.7-1.2-3.9c-0.1,0.4-0.2,0.7-0.2,1c-1.4,8-2.8,16-4.2,24c-0.5,3-1.3,5.9-1.8,8.8c-0.5,3-0.9,6.1-1.4,9.1
		c-1.4,8.7-2.9,17.5-4.5,26.2c-0.8,4.5-1.4,9-2.5,13.4c-1.3-0.2-2.5-0.3-3.8-0.5c0.1-3.7,1.1-7.2,1.7-10.8c2.1-12.7,4.3-25.3,6.5-38
		c2.4-13.5,4.8-27,7.1-40.5c0.3-1.7,0.3-1.7,2.2-1.8c5.3,0,10.5,0,15.8,0c1.8,0,1.8,0,2.1,1.8c2.1,11.9,4.2,23.9,6.2,35.8
		c2.2,12.6,4.5,25.3,6.5,37.9C162.8,110.8,164.3,116.3,164.8,122z"/>
	<path class="st0" d="M567.3,111.6c0.1,5.6,0.1,11.2,0.2,16.8c0,1.4,0,2.7,0,4.1c-0.1,3.4,1.3,5.9,4.1,7.9
		c6.7,4.7,13.3,9.5,19.9,14.2c2,1.4,3.8,3.1,5.3,5.2c2.7,3.7,4,7.9,4,12.4c0.1,8.3,0,16.6,0,24.9c0,12.9-9.7,21.1-19.9,21.7
		c-3.1,0.2-6.2,0.2-9.3-0.5c-9.6-2.2-16.2-10.1-16.6-20.1c-0.2-4.7,0-9.4-0.1-14.1c0-1.2,0.3-1.7,1.6-1.7c3.2,0.1,6.4,0.1,9.6,0
		c1.3,0,1.6,0.5,1.6,1.7c0,7.8,0,15.5,0,23.3c0,2.6,0.9,4.7,2.7,6.7c2.7,3.1,12.3,3,15,0.1c1.9-2.1,2.8-4.4,2.8-7.1
		c0-4.1,0-8.2,0-12.2c0-7-0.1-14.1,0-21.1c0.1-4-1.4-7-4.7-9.3c-6.4-4.4-12.6-9-18.9-13.5c-6.6-4.6-9.8-10.9-9.7-18.9
		c0.1-6.8,0.1-13.6,0.1-20.4C559,111.6,563.1,111.6,567.3,111.6z"/>
	<path class="st0" d="M621.6,112.5c0,6.4,0.2,12.8,0.1,19.2c-0.1,4,1.4,6.8,4.7,9.1c6.5,4.5,12.9,9.2,19.4,13.7
		c2.2,1.5,4.1,3.3,5.6,5.5c2.5,3.6,3.6,7.7,3.7,12c0.1,8.3-0.1,16.6,0,24.9c0.3,10.8-7.9,20.9-20,21.7c-3.4,0.2-6.7,0.2-10-0.6
		c-9.1-2.4-15.5-10.3-15.8-19.7c-0.1-4.8,0-9.6-0.1-14.4c0-1.3,0.4-1.6,1.7-1.6c3.1,0.1,6.2,0,9.4,0c1.6,0,1.7,0,1.7,1.8
		c0,7.5,0,15,0,22.5c0,1.3,0,2.6,0.5,3.8c1.2,3.2,3.4,5.2,6.8,5.7c1.7,0.2,3.4,0.2,5,0.1c4.6-0.3,7.8-3.5,8.2-8.2c0.1-1,0-1.9,0-2.9
		c0-9.9-0.1-19.8,0-29.7c0-1.8-0.2-3.6-0.4-5.4c-0.2-2-1.4-3.5-3-4.7c-4.7-3.4-9.4-6.7-14-10c-3.1-2.2-6.4-4.2-9.2-6.8
		c-4.2-4-6.5-8.9-6.7-14.7c-0.2-7.1,0-14.2,0-21.3C613.3,112.5,617.4,112.5,621.6,112.5z"/>
	<path class="st0" d="M402.3,110c1.1,6.2,2.3,12.4,3.2,18.6c0.6,4.1,1.7,8.2,2.3,12.3c0.6,4.4,1.4,8.7,2.2,13.1
		c1.2,6.3,2.3,12.5,3.4,18.8c0.8,4.6,1.5,9.3,2.3,13.9c1.1,6.5,2.3,13,3.4,19.5c0.5,2.8,1.4,5.6,1.3,8.5c0,1.3,0.8,1.6,1.9,1.6
		c2.2,0,4.5,0,6.7,0c1.3,0,1.5,0.4,1.5,1.6c-0.1,1.5-1.2,1-2,1c-8.1,0-16.1,0-24.2,0c-0.8,0-1.6,0-2.4,0c-0.8,0-1.1-0.4-1.1-1.2
		c0-0.8,0.1-1.5,1.1-1.4c1.4,0,2.7,0,4.1,0c2.1,0,2.2,0,2-2.2c-0.2-2.3-0.7-4.6-1.1-6.9c-0.6-3.7-1.6-7.2-1.9-11
		c-0.1-1.1-1-2-0.8-3.2c0-0.4-0.3-0.5-0.7-0.5c-0.6,0-1.1,0-1.7,0c-10.2,0-20.3,0-30.5,0c-0.5,0-1,0-1.4,0c-0.8,0-1.2,0.4-1.3,1.3
		c-0.6,6.4-2.1,12.6-3.1,18.9c-0.2,1-0.4,2-0.4,3.2c2,0.4,3.9,0.1,5.9,0.2c0.7,0,1.5,0,1.6,1c0.1,1.2-0.1,1.6-1.4,1.6
		c-5.5,0-11,0-16.5,0c-1,0-1.4-0.4-1.4-1.4c0-1.2,0.6-1.3,1.5-1.3c1.8,0,3.5,0,5.3,0c2.1,0,2.2,0,2.5-2.2c0.7-4.7,1.6-9.4,2.3-14.2
		c0.5-3.4,1.3-6.7,1.9-10.1c1.1-6.6,2.3-13.2,3.3-19.8c1.2-8.1,2.9-16.1,4.3-24.1c2-11,3.9-21.9,5.9-32.9c0.9-0.1,1.8,0.2,2.6,0.5
		c-0.3,4-1.4,7.8-2,11.7c-1,6.8-2.3,13.5-3.5,20.3c-1.1,6.2-2.2,12.3-3.3,18.5c-0.7,3.9-1.5,7.9-2,11.9c-0.5,4.1-1.4,8.2-2.1,12.3
		c-0.3,1.7-0.2,1.8,1.5,1.8c10.3,0,20.6,0,30.9,0c1.6,0,1.7-0.1,1.3-1.6c-0.8-3.4-1.2-6.9-1.9-10.3c-0.7-3.8-1.3-7.6-1.9-11.4
		c-1-6.1-2.1-12.2-3.1-18.2c-1.3-7.7-2.7-15.3-4-23c-0.9-5.1-1.7-10.2-2.5-15.3C394.2,110.1,398.3,110.3,402.3,110z"/>
	<path class="st0" d="M732.2,218.9c-9.4,0-18.9,0-28.3,0c-0.2-0.1-0.3-0.3-0.5-0.4c-0.1-2.2-0.1-2.2,1.9-2.2c1.4,0,2.9,0,4.3,0
		c0.8,0,1.1-0.4,1-1.2c-1.1-6.6-2.2-13.1-3.4-19.7c-0.6-3.2,0-2.8-3.2-2.8c-9.9,0-19.8,0-29.7,0c-3,0-2.8,0-3.4,3.1
		c-0.5,2.2-0.7,4.5-1.2,6.7c-0.6,2.4-0.8,5-1.2,7.5c-0.2,1.7-0.6,3.3-0.9,4.9c-0.2,1,0.1,1.5,1.2,1.5c1.7,0,3.4,0,5,0
		c1.1,0,1.3,0.5,1.3,1.5c0,1-0.5,1.2-1.3,1.2c-5.5,0-11,0-16.5,0c-1,0-1.4-0.3-1.4-1.4c0-1.1,0.6-1.3,1.5-1.3c1.8,0,3.7,0,5.5,0
		c1.9,0,1.9,0,2.2-1.8c0.8-5.2,1.8-10.4,2.6-15.6c0.8-5.6,2-11,3-16.6c1.2-6.8,2.4-13.6,3.6-20.4c1.4-8.1,2.8-16.3,4.3-24.4
		c1.1-6.6,2.4-13.1,3.4-19.7c0.4-2.3,0.9-4.5,1.3-6.8c0.9,0,1.8,0,2.7,0c0,0.6,0,1.1-0.1,1.7c-1.3,7.4-2.6,14.7-3.8,22.1
		c-1,6.2-2.4,12.4-3.3,18.7c-0.5,3.2-1.2,6.4-1.7,9.6c-0.7,4.6-1.8,9.1-2.4,13.7c-0.5,3.8-1.3,7.5-2,11.3c-0.3,1.8-0.2,1.9,1.6,1.9
		c4.1,0,8.1,0,12.2,0c6.2,0,12.3,0,18.5,0c1.7,0,1.7-0.2,1.5-1.8c-0.4-2.6-1.5-5-1.4-7.6c0-0.4-0.1-0.8-0.2-1.2
		c-0.7-3.4-1.2-6.8-1.8-10.2c-1.6-9.4-3.3-18.8-4.9-28.2c-1.1-6.4-2.2-12.9-3.3-19.3c4,0,8.1,0,12.1,0c0.8,4.3,1.6,8.6,2.4,12.9
		c0.7,4.3,1.4,8.6,2.1,12.9c0.5,2.9,1.2,5.9,1.6,8.8c0.8,5.3,2.2,10.5,2.6,15.9c0.2,2.2,1.1,4.3,1.3,6.4c0.5,4.6,1.4,9.1,2.2,13.6
		c0.7,4.2,1.5,8.4,2.4,12.6c0.6,3.2,1.1,6.4,1.7,9.6c0.3,1.8,0.3,1.8,2.2,1.9c1.8,0,3.7,0,5.5,0c2,0,2,0,1.9,2.2
		C732.5,218.6,732.3,218.7,732.2,218.9z"/>
	<path class="st0" d="M515.1,17.1c1-0.2,1.4-0.9,1.8-1.4c3-3.3,6.5-6.1,10.2-8.5c1.6-1,1.8-1,2.1,0.9c3.1,15.5,0.4,29.5-10.9,41.3
		c-2.9,3.1-6.2,5.8-9.8,8.1c-1,0.6-1.7,0.8-2.8,0.1c-13.3-8.8-21.6-20.6-21.9-37.1c-0.1-4.1,0.1-8.1,1.1-12.1
		c0.1-0.6,0.1-1.3,0.8-1.8c5.1,2.6,9,6.7,13.2,11c2-5.5,4.3-10.7,8-15.3c2,2.2,3.4,4.7,4.7,7.2C513.2,11.8,514.2,14.5,515.1,17.1z
		 M509.1,50.6c0.3-0.1,0.6-0.3,0.7-0.6c4-7.8,6-15.9,4.9-24.7c-0.1-0.7-0.3-1.3-0.6-2.3c-2.6,3.6-4,7.3-5.1,11.2
		c-0.3,1.3-0.8,2.6-0.6,4c0.5,4,0.6,8.1,0.3,12.2c-0.1,0.3-0.2,0.7,0,0.8C509.2,51.4,509,50.9,509.1,50.6z M502.9,52
		c-0.2,0.1-0.2,0.2,0,0.3c0,0,0.1-0.1,0.1-0.1C503.1,51.9,503,52.3,502.9,52c-0.1-0.3-0.2-0.6-0.3-0.9c-4.7-9.4-6.8-19.2-4.5-29.6
		c0.2-1.1-0.1-1.8-0.8-2.6c-2.6-3-5.4-5.7-8.5-8c-0.5-0.4-0.9-0.9-1.7-0.8c-0.7,1.6-0.6,3.3-0.8,4.9c-1.3,14.8,3.9,26.9,15.2,36.4
		C501.9,51.8,502.2,52.4,502.9,52z M512.2,51.9c14.8-11.4,18.2-28.8,14.8-42c-3.7,2.5-6.9,5.5-9.8,8.8c-1,1.1-1.2,2.1-0.9,3.5
		c1.4,6.1,1,12.2-0.5,18.3c-1,3.8-2.6,7.4-4.1,11c-0.2,0.2-0.4,0.5-0.1,0.7C511.7,52.2,512,52,512.2,51.9z M507.4,31.9
		c1.4-4.2,3.2-7.9,5.6-11.2c0.6-0.9,0.4-1.6,0.1-2.5c-1.2-3.8-2.9-7.4-4.9-10.9c-0.3-0.4-0.4-1.1-1.2-1.1c-2.5,3.9-4.4,8.1-5.8,12.5
		c-0.3,0.9,0,1.5,0.5,2.2c1.7,2.4,3,4.9,4.2,7.5C506.2,29.5,506.4,30.6,507.4,31.9z M500.1,23.4c-2.1,8.1,1,23.6,5.6,28
		c-0.1-1.1-0.1-2.1-0.1-3c-0.2-3-0.1-5.9,0.2-8.8c0.2-1.5,0.1-3-0.3-4.5c-0.8-3.4-2-6.7-3.8-9.8C501.4,24.6,501.2,23.8,500.1,23.4z"
		/>
	<path class="st0" d="M485.1,113c-4.1-0.9-8.2-0.3-12.3-0.5c0-0.8-0.1-1.6-0.1-2.4c0-4.1,0-8.1,0-12.2c0-5.6-3.4-9-8.9-9
		c-3.1,0-6.2,0-9.3,0c-2.1,0-2.1,0-2.2,2.1c0,1,0,1.9,0,2.9c0,6.1,0,12.1,0,18.2c-4.3,0-8.7,0-13,0c-0.3-3.8-0.1-7.6-0.1-11.5
		c0-3.3,0-6.5,0-9.8c0-1.7-0.1-1.7-1.8-1.7c-1.8,0-3.5,0-5.3,0c-1,0-1.2-0.5-1.2-1.3c0-0.9,0.4-1.3,1.3-1.3c0.4,0,0.8,0,1.2,0
		c10.1,0,20.1,0,30.2,0c6.2,0,11.6,2.1,15.9,6.6c3.7,3.8,5.6,8.5,5.8,13.8C485.2,108.8,485.3,110.9,485.1,113z"/>
	<path class="st0" d="M319.4,110.6c-2.3,0-4.6,0-6.9,0c-2,0-3.9,0.1-5.9,0.5c-0.3-4.2-0.1-8.4-0.1-12.7c0-2.4,0-4.8,0-7.2
		c0-2.2,0-2.2-2.3-2.2c-1.5,0-3,0-4.5,0c-0.9,0-1.5-0.2-1.5-1.3c0-1.1,0.7-1.3,1.6-1.3c2.8,0,5.6,0,8.4,0c7.7,0,15.5-0.1,23.2,0
		c10.1,0.1,18.3,6.6,20.6,16.1c0.8,3.1,0.8,6.3,0.5,9.5c-4.2,0-8.3,0-12.5,0c-0.1-4.9-0.1-9.7-0.2-14.6c-0.1-4.7-3.5-8.2-8.2-8.4
		c-3.5-0.1-7,0-10.6-0.1c-1.3,0-1.6,0.6-1.6,1.7c0.1,2.5,0.1,5,0,7.4C319.5,102.3,319.7,106.4,319.4,110.6z"/>
	<path class="st0" d="M546.1,112.6c-4.1,0-8.3,0-12.4,0c0-0.9-0.1-1.7-0.1-2.6c0-4.1,0-8.1,0-12.2c-0.1-5-3.6-8.5-8.6-8.7
		c-0.9,0-1.8,0-2.6,0c-5.6,0.1-9.1,3.4-9.2,9.1c-0.1,2.8,0,5.6,0,8.4c0,2.5,0.2,4.9-0.2,7.4c-4.1,0-8.3,0-12.4,0
		c-0.3-2.9-0.2-5.7,0-8.6c0.4-5.1,2.6-9.5,6.1-12.9c2.8-2.9,6.5-4.9,10.7-5.6c4-0.7,8.1-0.8,12.1,0c9.3,1.9,15.8,9.3,16.8,18.8
		C546.4,107.9,546.5,110.3,546.1,112.6z"/>
	<path class="st0" d="M621.6,112.5c-4.2,0-8.4,0-12.5,0c-0.3-3.5-0.3-7,0.7-10.5c2.4-8.8,9.9-15.1,19.1-15.6c3.3-0.2,6.7-0.3,10,0.5
		c9.1,2.3,15.7,10.4,16,19.8c0.1,1.9,0.2,3.8-0.1,5.7c-4.2,0-8.3,0-12.5,0c-0.4-3.5-0.1-7-0.2-10.5c0-1.7,0-3.3,0-5
		c-0.2-4.6-3.5-7.9-8.1-8.1c-1.4-0.1-2.7-0.1-4.1,0c-4.6,0.2-8,3.5-8.1,8.1c-0.1,4.5,0,9.1,0,13.6
		C621.8,111.3,621.7,111.9,621.6,112.5z"/>
	<path class="st0" d="M567.3,111.6c-4.2,0-8.3,0-12.5,0c-0.7-7.3,0.9-13.8,6.2-19.1c3.7-3.6,8.1-5.7,13.2-6c3.1-0.2,6.2-0.3,9.3,0.3
		c9.8,2,16.6,10.1,17,20.2c0.1,1.5,0.2,3-0.1,4.5c-4.2,0-8.4,0-12.6,0c-0.3-4.5-0.1-9.1-0.1-13.6c0-1.3-0.1-2.6-0.6-3.8
		c-1.4-3.2-3.8-5-7.3-5.3c-1.4-0.1-2.9-0.1-4.3,0c-4.5,0.2-7.9,3.5-8.1,8.1c-0.1,4,0,8,0,12C567.5,109.9,567.6,110.7,567.3,111.6z"
		/>
	<path class="st0" d="M44.7,244.3c-0.6-0.1-0.9-0.6-1.4-0.9c-8.8-6.3-18.5-7.4-28.7-4.3c-2.3,0.7-4.4,1.8-6.3,3.3
		c-5,4-5.5,10.4-1,15.1c2.3,2.5,5.2,4,8.4,4.9c5.5,1.6,11.1,1.3,16.5-0.5c1.1-0.4,2.2-0.9,3.2-1.5c1-0.6,1.3-1.2,0.8-2.3
		c-0.4-0.8-0.6-1.8-0.4-2.8c0.2-0.9,0.6-1.7,1.6-1.9c1.1-0.2,1.9,0.2,2.5,1c1,1.4,0.9,2.9,0.1,4.3c-0.8,1.3-0.5,2.1,0.4,3.2
		c9.1,10.7,24.8,14,37.3,7.7c4.4-2.2,7.8-5.5,10.7-9.3c0.7-0.9,0.9-1.7,0.3-2.8c-0.8-1.6-1-3.4-0.4-5.1c0.1-0.5,0.3-0.9,0.6-1.3
		c0.5-0.8,1.1-1.4,2.1-1.3c1.1,0.1,1.6,0.9,1.8,1.9c0.3,1.7-0.1,3.3-0.7,4.9c-0.9,2.2-0.7,2.8,1.4,3.9c2,1,4.2,1,6.3,0.5
		c3-0.7,5.7-1.9,8.5-3.3c3.7-1.8,7.3-3.9,11.1-5.4c2.9-1.2,5.9-2.4,9.2-2.4c-4.2,1-8,2.9-11.7,4.9c-3,1.6-5.9,3.2-8.9,4.8
		c-1.8,1-3.7,1.8-5.7,2.5c-4.2,1.4-8.3,1.7-12-1.8c-1.5,1.9-3.1,3.5-4.7,5.1c-5.1,5.3-11.6,7.8-18.8,8.4c-10.9,0.9-20-2.9-27.6-10.8
		c-0.6-0.6-0.9-1.5-2.1-0.7c-5.3,3.7-11.3,4.6-17.6,4.4c-3.8-0.1-7.4-1.1-10.8-2.9c-2.1-1.1-3.9-2.5-5.4-4.3
		c-5.3-6.3-4.2-14.9,2.4-19.8c3-2.2,6.5-3.5,10.2-4c10-1.5,19.2,0.7,27.2,7C43.7,243,44.7,243.3,44.7,244.3L44.7,244.3z M90.1,256.6
		c1.1-1.4,1.2-2.6,1.2-3.8c0-0.5,0.1-1.2-0.6-1.3c-0.5,0-0.7,0.5-0.9,1C89.6,253.8,89.6,255,90.1,256.6z M37.9,257.5
		c0.8-0.5,0.6-1.1,0.3-1.7c0-0.1-0.3-0.1-0.4-0.1C37.4,256.2,37.4,256.8,37.9,257.5z"/>
	<path class="st0" d="M687.7,244.9c-0.2-1,0.7-1.3,1.3-1.8c5.1-4.4,11-7,17.7-7.9c5.6-0.7,11-0.2,16.2,1.9c4.9,2,8.3,5.3,9.6,10.5
		c0.8,2.9,0.4,5.9-1,8.6c-1.6,3.3-4.2,5.6-7.3,7.4c-5.6,3.1-11.5,3.5-17.7,2.6c-4.2-0.6-8.1-1.9-11.5-4.6
		c-7.1,7.9-15.8,12.4-26.6,12.2c-10.8-0.2-19.3-4.8-25.7-13.6c-1.4,1-2.7,2-4.4,2.4c-2.3,0.5-4.4,0.2-6.6-0.4
		c-4.8-1.4-9.1-3.8-13.3-6.3c-4.8-2.8-9.5-5-14-6.1c0.9-0.2,1.5-0.1,2.2,0c3.4,0.8,6.6,2.2,9.8,3.7c4.7,2.3,9.3,5,14.4,6.6
		c1.8,0.6,3.7,1.1,5.6,1c1.1,0,2.1-0.3,3-0.7c2.2-1.1,2.5-1.7,1.6-4c-0.6-1.5-1-3-0.7-4.7c0.1-1,0.6-1.9,1.7-2.1
		c1.1-0.2,1.8,0.5,2.3,1.4c1.1,2,1.1,4.1,0.2,6c-0.7,1.5-0.3,2.5,0.5,3.7c5.9,8.2,14.2,11.8,24.1,12c9.4,0.1,17.2-3.8,23.5-10.7
		c0.9-1,1.5-2,0.5-3.3c-0.7-0.9-0.7-2.1-0.4-3.2c0.4-1.4,1.6-2.3,2.8-2.1c1.1,0.1,2,1.5,1.9,2.9c0,0.5-0.3,0.9-0.4,1.4
		c-0.3,2.2-0.4,2.4,1.6,3.3c8.2,3.5,16.3,3.7,24.2-0.8c1.6-0.9,2.9-2.2,4.1-3.7c3.5-4.6,2.5-9.6-1.2-13.4c-1.9-1.9-4.3-3.1-6.8-3.9
		c-10.6-3.3-20.5-2.1-29.5,4.7C688.5,244.2,688.1,244.5,687.7,244.9L687.7,244.9z M642.5,256.6c0.9-1.7,0.8-3.1,0.2-4.6
		c-0.1-0.3-0.3-0.5-0.7-0.5c-0.4,0-0.5,0.4-0.5,0.7C641.3,253.7,641.6,255,642.5,256.6z M695.1,255.4c-1,0.7-0.9,1.3-0.4,2
		c0.1,0.1,0.3,0,0.4,0c0-0.3,0.1-0.6,0.1-0.9C695.3,256.2,695.2,255.9,695.1,255.4z"/>
	<path class="st0" d="M685.6,111c-0.9,0-1.8,0-2.7,0c0.7-5.8,1.9-11.6,2.9-17.4c0.3-1.5-0.1-3.5,1.1-4.2c1.1-0.7,2.7,0.5,4.1,0.8
		c3,0.6,6,1.2,9,1.1c1,0,1.6,0.2,1.8,1.4c1.6,9.3,3.2,18.6,4.8,27.8c0.1,0.3,0,0.6,0,1c-4,0-8.1,0-12.1,0c-0.1-0.2-0.3-0.4-0.3-0.6
		c-1.2-6.6-2.3-13.2-3.4-19.8c-0.5-2.7-1-5.5-1.5-8.2c-0.9,2.8-1.3,5.5-1.9,8.3C686.9,104.5,686.6,107.8,685.6,111z"/>
	<path class="st0" d="M382.8,113.5c-0.9-0.2-1.7-0.5-2.6-0.5c0.3-3.8,1.2-7.5,1.8-11.3c0.7-4.5,1.5-8.9,2.3-13.4
		c0.3-1.9,0.3-1.9,2.1-1.9c3.4,0,6.9,0,10.3,0c1.3,0,1.8,0.6,2,1.8c0.4,3.6,1.2,7.1,1.7,10.6c0.4,2.6,1,5.3,1.5,7.9
		c0.2,1.1,0.3,2.2,0.5,3.3c-4,0.3-8.1,0.1-12.2,0.1c-0.8-2.5-1-5.2-1.5-7.7c-0.6-3.2-1.1-6.3-1.7-9.5c-0.8,2.3-1.2,4.6-1.7,7
		C384.5,104.4,383.9,109,382.8,113.5z"/>
	<path class="st0" d="M487.9,252.9c0,1.3,0,2.6,0,4c0,2.5,0,5,0,7.4c0,1.5-0.1,1.5-2.8,1.5c-2.4,0-2.4,0-2.4-1.6c0-3.1,0-6.2,0-9.3
		c0-3.4,0-6.9,0-10.3c0-1.2,0.4-1.6,1.7-1.7c1.8-0.1,3.1,0.3,4.3,1.9c2.4,3.2,5,6.2,7.5,9.3c0.5,0.6,0.9,1.3,1.6,1.7
		c0.7-0.3,0.5-1,0.5-1.5c0-3.2,0-6.4,0-9.6c0-1.7,0.1-1.8,1.8-1.8c4,0,3.5-0.4,3.5,3.4c0,5.6,0,11.2,0,16.8c0,0.9,0.5,2.2-0.7,2.5
		c-1.4,0.3-3,0.8-4.3-0.6c-0.9-1.1-1.8-2.2-2.8-3.3c-2.4-3-4.9-5.9-7.3-8.9C488.3,252.8,488.1,252.9,487.9,252.9z"/>
	<path class="st0" d="M210.9,266.1c-2,0-3.6-0.2-5.1-0.7c-5.2-1.8-8.1-6.4-7.7-12.1c0.3-5.1,4.1-9.2,9.2-10.3
		c2.3-0.5,4.6-0.5,6.9,0.1c5.7,1.5,9.1,6.5,8.7,12.4c-0.5,5.6-4.8,10-10.6,10.5C211.7,266.1,211.1,266.1,210.9,266.1z M217.5,254.3
		c0-4.2-2.9-7.1-7-7.2c-4.1,0-7,2.9-7,7.1c0,4.3,2.9,7.3,7.1,7.3C214.6,261.6,217.5,258.5,217.5,254.3z"/>
	<path class="st0" d="M246.2,266.1c-1.7,0-3.2-0.2-4.5-0.6c-5.3-1.7-8.3-6.2-8-11.9c0.3-5.2,3.9-9.5,9.1-10.6
		c2.3-0.5,4.6-0.5,6.9,0.1c5.7,1.5,9.2,6.4,8.7,12.4c-0.4,5.6-4.8,10-10.6,10.6C247.1,266.1,246.5,266.1,246.2,266.1z M246,261.6
		c4.1,0,7-3,7-7.2c0-4.3-2.9-7.3-7.2-7.2c-4.1,0.1-6.9,3.1-6.9,7.3C239,258.7,241.9,261.6,246,261.6z"/>
	<path class="st0" d="M424.8,266.1c-7.1,0-12.1-4.4-12.7-10.4c-0.8-8.1,5.5-13.5,13.1-13.1c1.5,0.1,3,0.4,4.4,1
		c5.1,2.1,7.8,7,7.1,12.5c-0.7,5.1-4.8,9.1-10,9.8C426,266,425.2,266.1,424.8,266.1z M431.5,254.4c0-4.2-2.8-7.2-6.9-7.2
		c-4.1,0-7.1,2.9-7.1,7c-0.1,4.3,2.9,7.4,7.1,7.4C428.6,261.6,431.5,258.6,431.5,254.4z"/>
	<path class="st0" d="M186,254.5c0,3.2,0,6.4,0,9.6c0,1.2-0.4,1.7-1.6,1.7c-4.3-0.1-3.6,0.3-3.7-3.5c0-1.3,0-2.6,0-3.8
		c0-2-0.1-2-2-2.1c-2.1,0-4.2,0-6.2,0c-2,0-2,0-2,2c0,1.9-0.1,3.8,0,5.7c0,1.2-0.4,1.8-1.7,1.7c-0.1,0-0.2,0-0.2,0
		c-4,0-3.4,0.2-3.4-3.3c0-5.8,0-11.7,0-17.5c0-2.1,0-2.1,2.1-2.1c3.6,0,3.1-0.3,3.2,3.2c0,1.4,0,2.9,0,4.3c0,1,0.3,1.5,1.3,1.5
		c2.5,0,5-0.1,7.4,0c1.2,0,1.5-0.6,1.5-1.6c0-1.9,0-3.8,0-5.7c0-1.2,0.4-1.7,1.7-1.7c4.3,0.1,3.7-0.5,3.7,3.7
		C186,249.2,186,251.9,186,254.5C186,254.5,186,254.5,186,254.5z"/>
	<path class="st0" d="M355.4,254.5c0,3.2,0,6.4,0,9.6c0,1.2-0.4,1.8-1.6,1.7c-0.1,0-0.2,0-0.2,0c-3.9,0-3.4,0.3-3.4-3.2
		c0-1.5,0-3,0-4.6c0-1.1-0.3-1.6-1.5-1.6c-2.5,0.1-5,0-7.4,0c-1.1,0-1.4,0.5-1.4,1.4c0,2.1,0,4.2,0,6.2c0,1.2-0.3,1.7-1.6,1.7
		c-4.5,0-3.7,0.2-3.7-3.5c-0.1-5.8,0-11.5,0-17.3c0-2.1,0-2.1,2.1-2.1c3.6,0,3.2-0.4,3.2,3.2c0,1.4,0.1,2.9,0,4.3
		c-0.1,1.2,0.5,1.5,1.6,1.5c2.4,0,4.8,0,7.2,0c1.2,0,1.6-0.5,1.5-1.6c0-1.9,0-3.8,0-5.8c0-1.2,0.3-1.7,1.6-1.7
		c4.4,0.1,3.7-0.4,3.7,3.6C355.5,249.2,355.4,251.9,355.4,254.5C355.4,254.5,355.4,254.5,355.4,254.5z"/>
	<path class="st0" d="M550,254.2c0-3.2,0-6.4,0-9.6c0-1.2,0.4-1.7,1.7-1.7c4.6,0.1,9.3,0.1,13.9,0c1.2,0,1.8,0.3,1.7,1.6
		c0,0.4,0,0.8,0,1.2c0.1,1.1-0.4,1.5-1.5,1.5c-2.8-0.1-5.6,0-8.4,0c-2,0-2,0-2,2c0,0.2,0,0.5,0,0.7c0,2.1,0,2.1,2.1,2.1
		c2.2,0,4.5,0.1,6.7,0c1.2,0,1.8,0.4,1.7,1.7c0,0.4,0,0.8,0,1.2c0.1,1-0.4,1.4-1.4,1.4c-2.4,0-4.8,0-7.2,0c-1.8,0-1.8,0-1.9,1.9
		c0,0.2,0,0.5,0,0.7c0,3,0.1,2.6,2.6,2.6c2.7,0,5.4,0.1,8.2,0c1.3,0,1.8,0.4,1.6,1.7c0,0.4,0,0.8,0,1.2c0.1,1-0.4,1.4-1.4,1.4
		c-2.6,0-5.1,0-7.7,0c-2.1,0-4.2,0-6.2,0c-2.3,0-2.3,0-2.3-2.4C550,260.3,550,257.3,550,254.2C550,254.2,550,254.2,550,254.2z"/>
	<path class="st0" d="M275.7,252.7c3-2,4.9-4.3,6.9-6.5c3.3-3.5,3.3-3.5,8.3-3.1c0.3,0.7-0.3,1-0.6,1.4c-2.3,2.5-4.6,4.9-6.8,7.4
		c-1.2,1.3-1.2,1.3-0.1,2.7c2.3,3,4.7,5.9,7,8.8c0.5,0.6,1.1,1.1,1.3,2.1c-1.7,0.4-3.5,0.2-5.2,0.2c-0.8,0-1.1-0.8-1.6-1.3
		c-2-2.4-3.9-4.8-6-7.3c-2,1.4-3.6,2.8-3.2,5.4c0,0.3,0,0.6,0,1c0,2.3,0,2.3-2.2,2.3c-3,0.1-3,0.1-3-3c0-5.7,0-11.3,0-17
		c0-0.6,0-1.3,0-1.9c0-0.3,0.1-0.7,0.5-0.8c1.4-0.3,2.9-0.3,4.3,0c0.6,0.1,0.5,0.7,0.5,1.2c0,1.4,0,2.7,0,4.1
		C275.7,249.7,275.7,250.9,275.7,252.7z"/>
	<path class="st0" d="M537.5,246.9c-0.3,0.2-0.7,0.4-1,0.6c-0.8,0.6-1.3,1.6-2.2,1.8c-0.9,0.2-1.4-0.9-2.2-1.3
		c-2.9-1.4-5.8-1.4-8.4,0.5c-2.7,1.9-3.2,4.7-2.5,7.7c1.2,5,6.4,6.1,10.1,4.8c0.8-0.3,1-0.9,1-1.7c0-1.4,0-2.7,0-4.1
		c0-0.9,0.3-1.4,1.2-1.3c0.2,0,0.3,0,0.5,0c3.2-0.1,3.2-0.1,3.2,3c0,1.6-0.1,3.2,0,4.8c0.1,1.2-0.5,1.9-1.5,2.4
		c-3.9,2-7.9,2.5-12.1,1.2c-5.2-1.6-8.4-6.4-8-11.7c0.4-5.5,4-9.7,9.3-10.8c4.1-0.8,8-0.3,11.4,2.3
		C536.6,245.6,537.1,245.9,537.5,246.9z"/>
	<path class="st0" d="M469.3,250.8c0,2,0.1,4,0,6c-0.2,5.6-3.7,9-9.2,9.3c-1.2,0.1-2.4,0-3.6-0.1c-3.8-0.6-6.5-3.2-7.4-6.9
		c-0.2-0.9-0.4-1.7-0.4-2.6c0-3.9,0-7.8-0.1-11.7c0-1.2,0.4-1.7,1.6-1.7c4.4,0.1,3.6-0.4,3.7,3.4c0,2.8,0,5.6,0,8.4
		c0,0.9,0,1.8,0.2,2.6c0.6,3,2.2,4.3,5.1,4.2c2.8-0.1,4.5-1.7,4.6-4.8c0.1-3.7,0.1-7.3,0.1-11c0-0.6,0-1.3,0-1.9
		c0-0.6,0.3-0.9,0.9-0.9c1.3,0,2.9-0.5,4,0.3c0.9,0.7,0.3,2.1,0.4,3.2C469.4,247.9,469.3,249.3,469.3,250.8
		C469.3,250.8,469.3,250.8,469.3,250.8z"/>
	<path class="st0" d="M323.8,265.4c-0.5,0.4-0.9,0.4-1.3,0.4c-3.8,0.1-3.8,0.1-5.3-3.4c-0.5-1.1-1.1-1.6-2.3-1.6
		c-2.5,0.1-4.9,0.1-7.4,0c-1,0-1.7,0.3-2,1.3c0,0.2-0.1,0.3-0.2,0.4c-1.5,3.4-1.9,3.6-5.5,3.2c-0.7-0.1-1-0.3-0.8-1.1
		c0.2-0.4,0.4-0.9,0.6-1.3c2.7-6.1,5.5-12.2,8.1-18.4c0.7-1.5,1.4-2.4,3.2-2.1c0.5,0.1,1,0.1,1.4,0c1.1-0.1,1.7,0.3,2.2,1.4
		c3,6.9,6.1,13.7,9.1,20.6C323.7,265,323.7,265.2,323.8,265.4z M314.8,256.8c-1.2-2.9-2.3-5.5-3.5-8.6c-1.3,3.1-2.3,5.6-3.4,8.1
		c0.8,0.6,1.5,0.4,2.1,0.4C311.5,256.9,313,256.8,314.8,256.8z"/>
	<path class="st0" d="M462.2,0c4.3,3,8.1,5.7,10.9,9.6c2.7,3.7,3.1,7.7,1.4,12c-0.4,1.1-0.9,1.6-2.3,1.4c-4.5-0.8-7.6-3.2-9.2-7.4
		c-0.7-1.9-1-3.8-1.2-5.8C461.5,6.6,461.9,3.5,462.2,0z"/>
	<path class="st0" d="M412.7,29.9c4.2-4.2,8.1-8.1,13.6-9.7c3.7-1.1,7.1-0.3,10.3,1.9c0.8,0.5,0.9,1.1,0.6,2
		c-1.4,3.9-3.9,6.6-7.9,7.6C423.6,33.1,418.4,31.6,412.7,29.9z"/>
	<path class="st0" d="M556.1,0.1c0.8,5.4,1,10.3-0.6,15.1c-1.5,4.4-4.6,7-9.2,7.7c-1.7,0.3-1.8,0.2-2.4-1.4c-1.5-3.8-1.3-7.5,0.9-11
		c0.6-0.9,1.3-1.9,2-2.7C549.3,4.8,552.5,2.6,556.1,0.1z"/>
	<path class="st0" d="M605.7,29.9c-5.3,1.6-10.2,2.9-15.4,2c-4.5-0.8-7.4-3.4-9-7.7c-0.4-1.1-0.2-1.7,0.8-2.4
		c3.4-2.1,6.9-2.8,10.7-1.5c2.1,0.7,3.9,1.8,5.7,3C601,25.3,603.2,27.3,605.7,29.9z"/>
	<path class="st0" d="M391.5,252.4c0,2.5,0,5,0,7.4c0,1.2,0.4,1.7,1.7,1.7c2.6-0.1,5.1,0,7.7,0c2,0,2,0,2,2c0,2.3,0,2.3-2.2,2.3
		c-4.2,0-8.5,0-12.7,0c-1.7,0-1.8-0.1-1.8-1.8c0-6.5,0-12.9,0-19.4c0-1.2,0.4-1.7,1.7-1.7c4.4,0.1,3.6-0.4,3.7,3.5c0,1,0,2.1,0,3.1
		C391.5,250.5,391.5,251.4,391.5,252.4C391.5,252.4,391.5,252.4,391.5,252.4z"/>
	<path class="st0" d="M588,111.6c4.2,0,8.4,0,12.6,0c0,3.2,0,6.4,0.1,9.5c0,1.1-0.3,1.6-1.5,1.6c-3.3,0-6.5,0-9.8,0
		c-1.2,0-1.5-0.5-1.5-1.6C587.9,117.9,587.9,114.7,588,111.6z"/>
	<path class="st0" d="M642.3,112.5c4.2,0,8.3,0,12.5,0c0,2.9,0,5.7,0.1,8.6c0,1.1-0.3,1.6-1.5,1.6c-3.3,0-6.5,0-9.8,0
		c-1.2,0-1.5-0.5-1.5-1.6C642.2,118.2,642.2,115.4,642.3,112.5z"/>
	<path class="st0" d="M66.7,267.2c5.1-5,8.6-11.2,12.8-16.9c2-2.6,4.1-5.1,6.8-7c2.2-1.6,4.7-2.8,7.5-2.8c1,0,1.9,0,2.9,0.8
		c-4.9,0.1-8.4,2.6-11.6,5.8c-2.6,2.7-4.9,5.7-7.2,8.6c-2.5,3.1-4.9,6.3-7.8,9.1C69.2,265.8,68.2,266.8,66.7,267.2z"/>
	<path class="st0" d="M665.4,267c-2-1.1-3.4-2.8-5-4.4c-2.6-2.8-4.9-5.9-7.3-8.9c-1.9-2.4-3.9-4.9-6.1-7.1c-3-3-6.4-5.2-11.3-5.2
		c2.6-1.2,4.8-0.8,6.9-0.1c2.5,0.9,4.5,2.4,6.3,4.2c2.7,2.6,4.9,5.7,7.1,8.7c3,4.3,5.9,8.7,9.7,12.4
		C665.7,266.7,665.5,266.8,665.4,267z"/>
	<path class="st0" d="M87.2,237.4c-3.9,0.2-6.6,2.3-8.9,5.1c-2,2.6-3.6,5.4-5.2,8.3c-1.7,3.2-3.4,6.3-5.1,9.5
		c-0.6,1.2-1.3,2.4-2.3,3.5c-0.1-0.8,0.3-1.2,0.6-1.8c1.6-3.7,3.2-7.3,4.7-11c1.2-2.8,2.5-5.5,4.2-8c1.4-2.1,3-3.9,5.3-5.1
		C82.6,236.7,84.9,236.2,87.2,237.4z"/>
	<path class="st0" d="M666.9,263.6c-1.8-2.2-2.9-4.7-4.3-7.2c-1.6-2.9-3.1-5.8-4.7-8.6c-1-1.8-2.1-3.4-3.3-5c-2.3-3-5.1-5.1-9.4-5.2
		c1.7-1.1,3.1-1,4.6-0.6c2.5,0.6,4.4,2.1,6.1,4c1.7,1.9,3.1,4.1,4.1,6.4c2.3,5.1,4.5,10.2,6.7,15.3C667,263.1,667,263.4,666.9,263.6
		L666.9,263.6z"/>
	<path class="st0" d="M666.5,267.3c0.7,0.2,1.2,0.7,2.1,1.4c-1.2-0.1-1.8-0.6-2.4-1.1C666.3,267.5,666.4,267.4,666.5,267.3z"/>
	<path class="st0" d="M65.7,268.2c-0.1,0-0.2-0.1-0.4-0.1c0.2-0.2,0.4-0.4,0.6-0.6c0.1,0,0.2,0.1,0.4,0.1
		C66.2,267.9,66,268.1,65.7,268.2z"/>
	<path class="st0" d="M672.2,269.8c-0.1,0.1-0.2,0.1-0.3,0.2c0.1,0.1,0.3,0.1,0.4,0.2c0,0,0.1-0.1,0.1-0.1
		C672.5,269.9,672.4,269.8,672.2,269.8z"/>
	<path class="st0" d="M62.7,269.6c-0.1,0-0.1,0.1-0.2,0.1c0,0-0.1-0.1-0.1-0.1c0.1,0,0.1-0.1,0.2,0
		C62.6,269.5,62.7,269.5,62.7,269.6z"/>
	<path class="st0" d="M667.8,265.1c-0.1-0.4-0.2-0.8-0.3-1.2c0,0-0.1,0.1-0.1,0.1C667.8,264.3,667.7,264.7,667.8,265.1L667.8,265.1z
		"/>
	<path class="st0" d="M64.4,268.9c-0.1,0.2-0.3,0.3-0.5,0.3c0,0,0-0.1,0-0.2C64,268.9,64.2,268.9,64.4,268.9L64.4,268.9z"/>
	<path class="st0" d="M670.1,269.6c0,0,0-0.1,0.1-0.1c0.2,0,0.2,0.1,0.1,0.2C670.2,269.6,670.2,269.6,670.1,269.6z"/>
	<path class="st0" d="M666.2,267.6c-0.3-0.2-0.7-0.3-0.8-0.7c0.1-0.1,0.3-0.3,0.4-0.4c0.3,0.2,0.6,0.3,0.7,0.7
		C666.4,267.4,666.3,267.5,666.2,267.6z"/>
	<path class="st0" d="M44.7,244.4c0.5,0.1,0.4,0.4,0.3,0.7l0,0C44.9,244.8,44.8,244.6,44.7,244.4C44.7,244.3,44.7,244.4,44.7,244.4z
		"/>
	<path class="st0" d="M667.8,265.1c0.3,0.1-0.1,0.2,0.1,0C667.9,265,667.9,265,667.8,265.1C667.8,265.1,667.8,265.1,667.8,265.1z"/>
	<path class="st0" d="M666.8,263.7c0.4-0.2,0.5,0.1,0.6,0.3c0,0,0.1-0.1,0.1-0.1C667.2,264,667,263.8,666.8,263.7
		C666.9,263.6,666.8,263.7,666.8,263.7z"/>
	<polygon class="st0" points="47.1,246.8 47.2,246.8 47.1,246.8 	"/>
	<path class="st0" d="M47.1,246.8c-0.2-0.1-0.4-0.2-0.6-0.3c0,0,0,0,0,0C46.7,246.6,46.9,246.7,47.1,246.8
		C47.1,246.8,47.1,246.8,47.1,246.8z"/>
	<path class="st0" d="M686.6,245.8C686.4,246,686.7,245.8,686.6,245.8C686.7,245.9,686.6,245.8,686.6,245.8z"/>
	<path class="st0" d="M46.1,245.9c0.1,0.2,0.3,0.4,0.4,0.5c0,0,0,0,0,0C46.4,246.3,46.2,246.1,46.1,245.9
		C46.1,245.9,46.1,245.9,46.1,245.9z"/>
	<path class="st0" d="M687.2,245.4c-0.2,0.1-0.4,0.3-0.6,0.4c0,0,0,0.1,0.1,0.1C686.7,245.6,686.9,245.4,687.2,245.4
		C687.2,245.5,687.2,245.4,687.2,245.4z"/>
	<path class="st0" d="M45.4,245.5c0.2,0.1,0.4,0.3,0.6,0.4c0,0,0,0,0,0C45.9,245.8,45.7,245.6,45.4,245.5
		C45.5,245.5,45.4,245.5,45.4,245.5z"/>
	<path class="st0" d="M687.6,244.9c-0.2,0.2-0.3,0.3-0.5,0.5c0,0,0.1,0.1,0.1,0.1C687.1,245.1,687.2,244.8,687.6,244.9
		C687.7,244.9,687.6,244.9,687.6,244.9z"/>
	<path class="st0" d="M44.9,245c0.5-0.2,0.6,0,0.5,0.5c0,0,0,0,0,0C45.4,245.2,45.3,245.1,44.9,245C45,245,44.9,245,44.9,245z"/>
	<path class="st0" d="M64.4,268.9c0-0.1,0-0.2,0-0.4c0.1,0,0.2,0.1,0.2,0.1C64.6,268.7,64.5,268.8,64.4,268.9
		C64.4,268.9,64.4,268.9,64.4,268.9z"/>
	<path class="st0" d="M732.2,218.9c0.2-0.1,0.3-0.3,0.5-0.4C732.7,218.8,732.5,218.9,732.2,218.9z"/>
	<path class="st0" d="M703.4,218.5c0.2,0.1,0.3,0.3,0.5,0.4C703.5,218.9,703.4,218.8,703.4,218.5z"/>
	<path class="st0" d="M459.7,218.9c0.2-0.1,0.3-0.2,0.5-0.4C460.2,218.8,460,218.9,459.7,218.9z"/>
	<path class="st0" d="M193.9,218.9c0.2-0.1,0.3-0.2,0.5-0.4C194.4,218.8,194.2,218.9,193.9,218.9z"/>
	<path class="st0" d="M111.4,218.9c0.2-0.1,0.3-0.3,0.5-0.4C111.9,218.8,111.7,218.9,111.4,218.9z"/>
	<path class="st0" d="M84.6,218.5c0.1,0.1,0.3,0.3,0.4,0.4C84.7,218.9,84.5,218.8,84.6,218.5z"/>
	<path class="st0" d="M0.1,218.5c0.1,0.1,0.3,0.3,0.4,0.4C0.2,218.9,0.1,218.8,0.1,218.5z"/>
	<path class="st0" d="M431,216.5c0.1,0.2,0.1,0.3-0.1,0.5C431,216.9,431,216.7,431,216.5z"/>
	<polygon class="st0" points="669,269 669.1,269 669.1,269.1 	"/>
	<path class="st0" d="M509.1,50.6c-0.1,0.2,0.1,0.7-0.3,0.6c-0.2-0.1-0.1-0.5,0-0.8C508.9,50.5,509,50.6,509.1,50.6z"/>
	<path class="st0" d="M502.9,52.1c0.2,0.3,0.3-0.1,0.2,0.2c0,0-0.1,0.1-0.1,0.1C502.7,52.2,502.7,52.1,502.9,52.1
		C502.9,52,502.9,52.1,502.9,52.1z"/>
	<path class="st0" d="M512.2,51.9c-0.2,0.1-0.5,0.3-0.5,0.2c-0.3-0.3-0.1-0.5,0.1-0.7C511.9,51.6,512.1,51.8,512.2,51.9z"/>
</g>
</svg>
