<?xml version="1.0" encoding="utf-8"?>
<!-- Generator: Adobe Illustrator 27.2.0, SVG Export Plug-In . SVG Version: 6.00 Build 0)  -->
<svg version="1.1" id="Ebene_1" xmlns="http://www.w3.org/2000/svg" xmlns:xlink="http://www.w3.org/1999/xlink" x="0px" y="0px"
	 viewBox="0 0 917.1 986" style="enable-background:new 0 0 917.1 986;" xml:space="preserve">
<style type="text/css">
	.st0{fill:#FBFBFB;}
</style>
<g>
	<path class="st0" d="M554.2,739.7c0,34.2-24.7,61.6-55.4,61.6H55.4C24.9,801.3,0,773.9,0,739.7c0-34.2,24.9-61.6,55.4-61.6h249.4
		l69.3,61.6l69.3-61.6h55.4C529.5,678.1,554.2,705.8,554.2,739.7 M277.1,431.8C0,431.8,0,616.5,0,616.5h554.2
		C554.2,616.5,554.2,431.8,277.1,431.8 M0,893.6C0,944.7,41.3,986,92.4,986h369.4c51.1,0,92.4-41.3,92.4-92.4v-30.8H0V893.6z"/>
	<path class="st0" d="M644.3,197.3H505.9v-28.9c0-17.3-6.9-33.9-19.1-46.1L373.3,8.8c-11.8-11.8-30.9-11.8-42.7,0v0
		c-11.8,11.8-11.8,30.9,0,42.7l99.6,99.6c12.2,12.2,19.1,28.8,19.1,46.1v0h-77.9l20.2,200.8c33.6,7.7,73.7,25.9,98.8,41
		c89.5,53.7,112.1,122,112.1,226.4v192v32.1c0,29.9-8.2,96.4-61.5,96.4h103.2h210.6l62.2-788.6H644.3z"/>
</g>
</svg>
